<?xml version="1.0" encoding="iso-8859-1"?>
<!-- Generator: Adobe Illustrator 16.0.0, SVG Export Plug-In . SVG Version: 6.00 Build 0)  -->
<!DOCTYPE svg PUBLIC "-//W3C//DTD SVG 1.1//EN" "http://www.w3.org/Graphics/SVG/1.1/DTD/svg11.dtd">
<svg version="1.1" id="Capa_1" xmlns="http://www.w3.org/2000/svg" xmlns:xlink="http://www.w3.org/1999/xlink" x="0px" y="0px"
	 width="612px" height="612px" viewBox="0 0 612 612" style="enable-background:new 0 0 612 612;" xml:space="preserve">
<g>
	<g id="Chat_1_">
		<g>
			<path d="M612,248.625C612,111.308,500.692,0,363.375,0h-114.75C111.308,0,0,111.308,0,248.625S111.308,497.25,248.625,497.25
				h76.5L497.25,612V459h-1.798C565.373,415.013,612,337.365,612,248.625z M420.75,410.193v67.932l-95.625-57.375h-76.5
				c-95.051,0-172.125-77.074-172.125-172.125C76.5,153.574,153.574,76.5,248.625,76.5h114.75
				c95.051,0,172.125,77.074,172.125,172.125C535.5,323.48,487.458,386.517,420.75,410.193z"/>
		</g>
	</g>
</g>
<g>
</g>
<g>
</g>
<g>
</g>
<g>
</g>
<g>
</g>
<g>
</g>
<g>
</g>
<g>
</g>
<g>
</g>
<g>
</g>
<g>
</g>
<g>
</g>
<g>
</g>
<g>
</g>
<g>
</g>
</svg>
